# xmcd
#
# Track frame offsets:
#	150
#	11908
#	28682
#	44891
#	58196
#	73157
#	90042
#	110842
#	127475
#	139504
#	153842
#	172994
#	189145
#
# Disc length: 2680 seconds
#
# Revision: 0
# Processed by: cddbd v1.5.1PL0 Copyright (c) Steve Scherf et al.
# Submitted via: dBpowerAMP V4.0
#
DISCID=b60a760d
DTITLE=Grant and Forsyth - The Most Beautiful Country Love Songs
DYEAR=2005
DGENRE=Country
TTITLE0=This Strange Effect
TTITLE1=One Way Wind
TTITLE2=Ay No Digas
TTITLE3=All I Have To Do Is Dream
TTITLE4=Someone Loves You Honey
TTITLE5=All I Ever Need Is You
TTITLE6=Mississippi
TTITLE7=One Is One
TTITLE8=Ramona
TTITLE9=The French Song
TTITLE10=If You Go (Tu T'en Vas)
TTITLE11=Come What May (Apres Toi)
TTITLE12=The Arms Of Mary
EXTD=
EXTT0=
EXTT1=
EXTT2=
EXTT3=
EXTT4=
EXTT5=
EXTT6=
EXTT7=
EXTT8=
EXTT9=
EXTT10=
EXTT11=
EXTT12=
PLAYORDER=
